<svg width="21" height="21" viewBox="0 0 21 21" fill="none" xmlns="http://www.w3.org/2000/svg">
<path d="M10.1053 1.81974C12.8053 1.81974 13.125 1.83158 14.1869 1.87895C15.1737 1.92237 15.7066 2.08816 16.0619 2.22632C16.5316 2.4079 16.8711 2.62895 17.2224 2.98027C17.5776 3.33553 17.7948 3.67106 17.9763 4.14079C18.1145 4.49606 18.2803 5.0329 18.3237 6.01579C18.3711 7.08158 18.3829 7.40132 18.3829 10.0974C18.3829 12.7974 18.3711 13.1171 18.3237 14.179C18.2803 15.1658 18.1145 15.6987 17.9763 16.054C17.7948 16.5237 17.5737 16.8632 17.2224 17.2145C16.8671 17.5697 16.5316 17.7869 16.0619 17.9684C15.7066 18.1066 15.1697 18.2724 14.1869 18.3158C13.1211 18.3632 12.8013 18.375 10.1053 18.375C7.40527 18.375 7.08553 18.3632 6.02369 18.3158C5.03685 18.2724 4.50395 18.1066 4.14869 17.9684C3.67895 17.7869 3.33948 17.5658 2.98816 17.2145C2.6329 16.8592 2.41579 16.5237 2.23421 16.054C2.09605 15.6987 1.93026 15.1619 1.88684 14.179C1.83948 13.1132 1.82763 12.7934 1.82763 10.0974C1.82763 7.39737 1.83948 7.07764 1.88684 6.01579C1.93026 5.02895 2.09605 4.49606 2.23421 4.14079C2.41579 3.67106 2.63684 3.33158 2.98816 2.98027C3.34342 2.625 3.67895 2.4079 4.14869 2.22632C4.50395 2.08816 5.04079 1.92237 6.02369 1.87895C7.08553 1.83158 7.40527 1.81974 10.1053 1.81974ZM10.1053 0C7.36185 0 7.01843 0.0118421 5.94079 0.0592106C4.86711 0.106579 4.12895 0.280263 3.48948 0.528948C2.82237 0.789474 2.2579 1.1329 1.69737 1.69737C1.1329 2.2579 0.789474 2.82237 0.528948 3.48553C0.280263 4.12895 0.106579 4.86316 0.0592106 5.93685C0.0118421 7.01843 0 7.36185 0 10.1053C0 12.8487 0.0118421 13.1921 0.0592106 14.2697C0.106579 15.3434 0.280263 16.0816 0.528948 16.7211C0.789474 17.3882 1.1329 17.9526 1.69737 18.5132C2.2579 19.0737 2.82237 19.4211 3.48553 19.6776C4.12895 19.9263 4.86316 20.1 5.93685 20.1474C7.01448 20.1947 7.3579 20.2066 10.1013 20.2066C12.8447 20.2066 13.1882 20.1947 14.2658 20.1474C15.3395 20.1 16.0776 19.9263 16.7171 19.6776C17.3803 19.4211 17.9447 19.0737 18.5053 18.5132C19.0658 17.9526 19.4132 17.3882 19.6698 16.725C19.9184 16.0816 20.0921 15.3474 20.1395 14.2737C20.1869 13.1961 20.1987 12.8526 20.1987 10.1092C20.1987 7.3658 20.1869 7.02237 20.1395 5.94474C20.0921 4.87106 19.9184 4.1329 19.6698 3.49342C19.4211 2.82237 19.0776 2.2579 18.5132 1.69737C17.9526 1.13684 17.3882 0.789474 16.725 0.532895C16.0816 0.284211 15.3474 0.110526 14.2737 0.0631579C13.1921 0.0118421 12.8487 0 10.1053 0Z" fill="#000F00"/>
<path d="M10.1052 4.91431C7.23943 4.91431 4.91443 7.23931 4.91443 10.1051C4.91443 12.9709 7.23943 15.2959 10.1052 15.2959C12.971 15.2959 15.296 12.9709 15.296 10.1051C15.296 7.23931 12.971 4.91431 10.1052 4.91431ZM10.1052 13.4722C8.24601 13.4722 6.73811 11.9643 6.73811 10.1051C6.73811 8.24589 8.24601 6.73799 10.1052 6.73799C11.9644 6.73799 13.4723 8.24589 13.4723 10.1051C13.4723 11.9643 11.9644 13.4722 10.1052 13.4722Z" fill="#000F00"/>
<path d="M16.7131 4.70904C16.7131 5.38009 16.1684 5.92088 15.5013 5.92088C14.8302 5.92088 14.2894 5.37614 14.2894 4.70904C14.2894 4.03798 14.8342 3.49719 15.5013 3.49719C16.1684 3.49719 16.7131 4.04193 16.7131 4.70904Z" fill="#000F00"/>
</svg>
