<svg width="21" height="21" viewBox="0 0 21 21" fill="none" xmlns="http://www.w3.org/2000/svg">
<path d="M18.7145 0H1.49211C0.667106 0 0 0.651316 0 1.45658V18.75C0 19.5553 0.667106 20.2105 1.49211 20.2105H18.7145C19.5395 20.2105 20.2105 19.5553 20.2105 18.754V1.45658C20.2105 0.651316 19.5395 0 18.7145 0ZM5.99606 17.2224H2.99606V7.57501H5.99606V17.2224ZM4.49606 6.26053C3.5329 6.26053 2.75527 5.4829 2.75527 4.52369C2.75527 3.56448 3.5329 2.78684 4.49606 2.78684C5.45527 2.78684 6.2329 3.56448 6.2329 4.52369C6.2329 5.47895 5.45527 6.26053 4.49606 6.26053ZM17.2224 17.2224H14.2263V12.5329C14.2263 11.4158 14.2066 9.97501 12.6671 9.97501C11.1079 9.97501 10.8711 11.1947 10.8711 12.454V17.2224H7.87895V7.57501H10.7526V8.89343H10.7921C11.1908 8.13553 12.1697 7.33422 13.6263 7.33422C16.6619 7.33422 17.2224 9.33159 17.2224 11.929V17.2224Z" fill="#000F00"/>
</svg>
