<svg width="19" height="19" viewBox="0 0 19 19" fill="none" xmlns="http://www.w3.org/2000/svg">
<path d="M7.75968 15.5127C9.49482 15.5143 11.1798 14.9306 12.5424 13.856L17.6849 19L19 17.6845L13.8575 12.5405C14.9394 11.1595 15.5212 9.4523 15.508 7.6978C15.4947 5.9433 14.8872 4.24512 13.7846 2.88059C12.6819 1.51605 11.1494 0.565769 9.43718 0.18493C7.72496 -0.195909 5.93425 0.015194 4.35745 0.783766C2.78066 1.55234 1.51095 2.83297 0.755676 4.41653C0.000399693 6.00009 -0.195821 7.79302 0.199056 9.50253C0.593933 11.212 1.55658 12.7371 2.92979 13.8287C4.303 14.9204 6.00564 15.514 7.75968 15.5127ZM7.75968 1.86153C8.92522 1.86153 10.0646 2.20726 11.0337 2.85499C12.0028 3.50273 12.7582 4.42337 13.2042 5.50052C13.6502 6.57766 13.7669 7.76291 13.5395 8.9064C13.3122 10.0499 12.7509 11.1002 11.9267 11.9247C11.1026 12.7491 10.0525 13.3105 8.90936 13.5379C7.76621 13.7654 6.58131 13.6487 5.50448 13.2025C4.42766 12.7563 3.50728 12.0008 2.85974 11.0314C2.2122 10.062 1.86657 8.92226 1.86657 7.75637C1.86657 6.19296 2.48745 4.69359 3.59262 3.58809C4.69779 2.4826 6.19673 1.86153 7.75968 1.86153Z" fill="black"/>
</svg>
