<svg width="21" height="18" viewBox="0 0 21 18" fill="none" xmlns="http://www.w3.org/2000/svg">
<path d="M6.35803 17.3157C13.9828 17.3157 18.1544 10.9972 18.1544 5.51939C18.1544 5.34176 18.1504 5.16018 18.1425 4.98254C18.954 4.39568 19.6543 3.66877 20.2105 2.83596C19.4548 3.17222 18.6523 3.39183 17.8307 3.48728C18.6958 2.96869 19.3436 2.15401 19.654 1.19425C18.8401 1.6766 17.95 2.01686 17.0219 2.20044C16.3965 1.53597 15.5697 1.09602 14.6692 0.948597C13.7688 0.801174 12.8448 0.954492 12.0402 1.38485C11.2356 1.8152 10.5952 2.49862 10.218 3.32945C9.84076 4.16028 9.74774 5.09223 9.9533 5.98123C8.30526 5.89853 6.693 5.47041 5.22104 4.72464C3.74908 3.97887 2.45027 2.93208 1.40882 1.65215C0.879495 2.56476 0.717522 3.64468 0.955816 4.67242C1.19411 5.70017 1.81479 6.59862 2.69171 7.18518C2.03337 7.16428 1.38945 6.98703 0.813159 6.66807V6.71939C0.812569 7.67711 1.14366 8.60547 1.75016 9.34668C2.35665 10.0879 3.20112 10.5962 4.14 10.7852C3.53015 10.952 2.89009 10.9763 2.26934 10.8562C2.53428 11.6799 3.04975 12.4003 3.74381 12.9168C4.43787 13.4334 5.2759 13.7204 6.14093 13.7378C4.67236 14.8914 2.85825 15.5171 0.99079 15.5141C0.659611 15.5136 0.328757 15.4933 0 15.4533C1.89714 16.6705 4.10403 17.3169 6.35803 17.3157Z" fill="#000F00"/>
</svg>
