<svg width="23" height="17" viewBox="0 0 23 17" fill="none" xmlns="http://www.w3.org/2000/svg">
<path opacity="0.2" d="M22.7709 3.49043C22.7709 3.49043 22.5463 1.90469 21.8545 1.2084C20.9785 0.291992 19.9992 0.2875 19.55 0.233594C16.3336 -1.28523e-07 11.5045 0 11.5045 0H11.4955C11.4955 0 6.66641 -1.28523e-07 3.45 0.233594C3.00078 0.2875 2.02148 0.291992 1.14551 1.2084C0.453711 1.90469 0.233594 3.49043 0.233594 3.49043C0.233594 3.49043 0 5.35469 0 7.21445V8.95742C0 10.8172 0.229102 12.6814 0.229102 12.6814C0.229102 12.6814 0.453711 14.2672 1.14102 14.9635C2.01699 15.8799 3.16699 15.8484 3.6791 15.9473C5.5209 16.1225 11.5 16.1764 11.5 16.1764C11.5 16.1764 16.3336 16.1674 19.55 15.9383C19.9992 15.8844 20.9785 15.8799 21.8545 14.9635C22.5463 14.2672 22.7709 12.6814 22.7709 12.6814C22.7709 12.6814 23 10.8217 23 8.95742V7.21445C23 5.35469 22.7709 3.49043 22.7709 3.49043ZM9.12363 11.0732V4.60898L15.3363 7.85234L9.12363 11.0732Z" fill="#000F00"/>
</svg>
